<?xml version="1.0" standalone="no"?>
<!DOCTYPE svg PUBLIC "-//W3C//DTD SVG 20010904//EN"
 "http://www.w3.org/TR/2001/REC-SVG-20010904/DTD/svg10.dtd">
<svg version="1.0" xmlns="http://www.w3.org/2000/svg"
 width="210.000000pt" height="210.000000pt" viewBox="0 0 210.000000 210.000000"
 preserveAspectRatio="xMidYMid meet">
<metadata>
Created by potrace 1.14, written by Peter Selinger 2001-2017
</metadata>
<g transform="translate(0.000000,210.000000) scale(0.100000,-0.100000)"
fill="#000000" stroke="none">
<path d="M100 1305 c-4 -11 -11 -43 -14 -70 -4 -28 -9 -57 -11 -65 -2 -8 -6
-33 -10 -55 -5 -36 -11 -76 -21 -130 -2 -11 -6 -33 -9 -50 -3 -16 -7 -43 -10
-60 -3 -16 -8 -45 -11 -62 l-5 -33 69 0 70 0 7 48 c4 26 9 63 11 82 2 19 9 59
14 89 6 30 10 57 11 60 0 3 22 -57 47 -134 l47 -140 55 1 c63 1 58 -7 111 162
18 56 36 102 40 102 3 0 10 -26 14 -57 7 -61 15 -117 20 -143 2 -8 4 -27 4
-42 1 -28 1 -28 71 -28 83 0 79 -14 46 165 -14 72 -27 150 -31 175 -4 25 -8
50 -9 55 -2 6 -6 33 -11 60 -14 90 -16 91 -82 90 l-58 -1 -55 -162 c-30 -89
-57 -162 -60 -162 -3 0 -27 70 -55 156 -27 86 -54 158 -59 162 -6 3 -34 6 -64
6 -46 1 -56 -2 -62 -19z"/>
<path d="M1192 1243 c-6 -16 -14 -38 -17 -50 -5 -17 -14 -23 -36 -23 l-29 0 0
-65 0 -65 30 0 30 0 1 -67 c1 -116 15 -150 70 -179 38 -19 136 -25 153 -9 6 6
11 38 11 71 l-1 59 -31 -3 c-40 -4 -61 26 -59 83 2 40 2 40 46 45 l45 5 0 60
0 60 -46 5 -45 5 1 48 1 47 -57 0 c-52 0 -57 -2 -67 -27z"/>
<path d="M835 1174 c-33 -7 -72 -17 -87 -23 l-27 -10 21 -50 c19 -44 24 -48
44 -41 52 20 106 22 125 4 25 -22 26 -49 2 -39 -10 3 -37 9 -61 12 -149 18
-215 -158 -89 -238 25 -16 43 -19 85 -15 29 2 60 10 68 17 11 9 18 9 26 1 7
-7 38 -12 70 -12 67 0 60 -20 58 168 -1 72 -6 124 -15 146 -29 70 -117 102
-220 80z m76 -244 c22 -12 25 -43 7 -57 -12 -8 -20 -9 -54 -5 -21 3 -25 34 -8
53 20 22 28 23 55 9z"/>
<path d="M1565 1167 c-75 -35 -115 -105 -115 -201 0 -119 92 -200 216 -189 59
5 122 34 147 68 17 24 17 24 -25 49 -41 25 -42 25 -66 5 -42 -32 -119 -22
-141 19 -8 16 1 17 125 16 117 -1 134 1 135 15 7 81 -21 150 -77 195 -30 24
-48 30 -103 33 -43 2 -77 -1 -96 -10z m138 -115 c23 -20 9 -27 -50 -26 -94 3
-91 2 -63 24 41 31 78 32 113 2z"/>
<path d="M1919 938 c-28 -20 -34 -30 -37 -66 -3 -36 1 -47 27 -72 41 -41 91
-41 132 -1 82 82 -25 203 -122 139z"/>
</g>
</svg>
